<svg xmlns="http://www.w3.org/2000/svg" width="500" height="500"><path d="m49.633-.267 2.848-.014c3.134-.013 6.269-.011 9.403-.01q3.383-.009 6.764-.02c6.119-.018 12.238-.022 18.356-.024q5.75-.001 11.501-.01a25452 25452 0 0 1 42.296-.025c11.062 0 22.124-.019 33.187-.047q17.103-.043 34.206-.04c6.384 0 12.767-.006 19.15-.027q9.036-.029 18.07-.005 3.283.004 6.566-.015C312.036-.818 370.08 22.536 415 62l2.648 2.309C427.644 73.153 436.766 82.492 445 93l2.36 2.914C464.087 116.958 476.755 140.817 486 166l.823 2.187c3.595 9.632 6.161 19.413 8.427 29.438l.747 3.283c3.56 16.402 4.41 32.302 4.378 49.03v3.15c-.033 15.697-.854 30.565-4.375 45.912q-.552 2.67-1.098 5.344c-9.116 42.858-30.487 82.505-60.117 114.625-1.83 1.908-1.83 1.908-2.785 4.031h-2l-.61 1.621c-1.982 3.392-4.762 5.82-7.64 8.442l-1.902 1.74c-35.809 32.398-81.032 55.332-128.861 62.88-1.74.277-3.476.57-5.212.864-13.694 2.04-27.43 1.704-41.244 1.648q-4.103-.006-8.204-.008-9.63-.011-19.261-.043c-8.042-.025-16.083-.035-24.125-.046-14.313-.02-28.627-.06-42.941-.098V379h60c1 1 1 1 1.12 3.36l-.006 3.17v3.579l-.016 3.895-.005 3.964q-.006 5.226-.024 10.45-.014 5.33-.02 10.658Q211.033 428.54 211 439q10.878-.092 21.754-.236 5.054-.067 10.108-.11c14.983-.131 29.467-.458 44.138-3.654l4.495-.94c40.54-8.506 79.318-32.023 104.505-65.06l2.45-3.043C419.754 339.35 431.884 307.495 437 274l.563-3.54c5.77-48.437-8.908-97.563-38.665-135.85a188 188 0 0 0-14.382-16.094 207 207 0 0 1-4.63-4.77c-30.399-31.912-77.969-50.865-121.646-52.103-4.511-.073-9.022-.08-13.534-.075q-3.098-.015-6.195-.032c-5.46-.027-10.92-.037-16.381-.042-5.15-.009-10.3-.033-15.45-.056-14.998-.058-29.995-.09-44.992-.125L60 61v228h90V150l52.438-.187 16.458-.083c6.715-.014 6.715-.014 9.875-.016q3.258-.007 6.515-.03c33.364-.225 61.742 7.289 86.402 30.566 18.69 19.581 29.073 45.913 28.558 72.996-1.561 23.82-9.693 44.57-25.246 62.754l-1.379 1.816C309.321 336.215 283.355 346.921 261 350c-8.647.684-17.335.508-26.002.454q-3.862-.001-7.723.002-8.258.002-16.514-.033c-7.96-.033-15.918-.043-23.877-.048q-19.377-.015-38.753-.073-18.804-.056-37.609-.082l-2.348-.003-11.664-.016C64.34 350.16 32.17 350.09 0 350a92983 92983 0 0 1-.223-134.095c-.017-14.893-.049-29.787-.086-44.68q-.056-22.935-.067-45.87-.008-14.145-.056-28.289-.03-9.708-.022-19.417c.003-3.73-.001-7.46-.023-11.19-.023-4.055-.015-8.11-.004-12.165l-.035-3.528c.1-13.8 4.366-26.043 13.805-36.239C23.93 4.41 35.071-.32 49.633-.267M211 212v77l22.75.313 7.104.137c15.662.18 26.172-1.494 37.728-12.7 6.989-7.948 11.025-17.542 10.73-28.195-1.587-12.977-7.302-21.517-17.027-29.797-10.335-7.95-22.06-8.07-34.66-7.945l-3.75.001c-7.728.037-15.117.54-22.875 1.186" fill="#0190B6"/><path d="M0 440h60v60c-20.668 0-32.352-1.305-47.023-14.871C.625 472.157 0 457.572 0 440" fill="#0291B7"/><path d="M0 101c4.07 3.489 7.902 6.778 11.65 10.537l2.547 2.546 2.674 2.69 2.795 2.8q3.645 3.65 7.284 7.309 3.73 3.742 7.462 7.481Q41.71 141.678 49 149c-1.528 3.61-3.672 5.92-6.434 8.677l-2.78 2.79-3.009 2.986-3.078 3.077a3289 3289 0 0 1-6.448 6.425 3622 3622 0 0 0-8.28 8.26 5437 5437 0 0 1-6.354 6.34l-3.053 3.048a2193 2193 0 0 1-4.26 4.238l-2.45 2.44C1 199 1 199 0 199z" fill="#0191B8"/><path d="M100 302c3.981 1.02 6.37 2.882 9 6v2l1.938.813C113 312 113 312 114 315l3 1v2h2c1.625 1.375 1.625 1.375 3 3v2h2c4.767 4.302 4.767 4.302 6 8h2c3.356 3.09 6.157 6.447 9 10l2.563 2.563C146 346 146 346 149 350H53l1-3h2l.688-1.687c2.345-4.132 5.923-7.027 9.562-10 2.767-2.017 2.767-2.017 3.75-4.313h2l.688-1.687c1.682-2.966 3.848-4.967 6.312-7.313l2.188-2.312C83 318 83 318 85 318l.625-1.687c1.556-2.618 3.483-4.146 5.855-6.016 2.16-1.844 3.773-4.068 5.52-6.297zm100-1c5.86 4.87 11.263 10.102 16.652 15.484l2.728 2.718q2.835 2.827 5.665 5.658c2.422 2.422 4.85 4.836 7.28 7.25 2.322 2.307 4.637 4.623 6.952 6.937l2.651 2.63 2.42 2.427 2.143 2.14C248 348 248 348 248 350h-95c1.777-3.555 2.31-4.51 5.188-6.75 3.403-2.797 6.188-5.87 9.042-9.215a143 143 0 0 1 5.583-6.035l1.707-1.75C176 325 176 325 178 325v-2h2l.742-1.73c1.478-2.667 3.22-4.457 5.39-6.598l2.442-2.422 2.551-2.5 2.574-2.547A2086 2086 0 0 1 200 301" fill="#0291B7"/><path d="M250 451c3.323 1.564 5.562 3.214 8 6v2l3 1c1.535 1.594 1.535 1.594 3.063 3.5 2.114 2.681 2.114 2.681 4.937 4.5v2l1.816.793c2.315 1.28 3.48 2.47 5.122 4.52 3.395 4.11 6.958 7.767 11.062 11.187 2.848 2.374 5.491 4.77 8 7.5v2c-12.422 4.544-26.031 4.289-39.094 4.195l-4.707-.008q-6.105-.014-12.21-.05c-4.178-.02-8.355-.03-12.532-.04-8.152-.02-16.305-.055-24.457-.097 4.94-5.961 10.285-11.415 15.773-16.871l2.8-2.795q3.65-3.645 7.309-7.284 3.742-3.73 7.481-7.462Q242.678 458.289 250 451" fill="#0191B7"/><path d="M168.76 149.886h2.603q4.237.002 8.473.016l5.893.005q7.739.006 15.476.024 7.904.014 15.807.02 15.495.016 30.988.049c-1.507 3.532-3.554 5.796-6.266 8.493l-2.67 2.669-2.884 2.854q-1.476 1.47-2.951 2.942a3884 3884 0 0 1-7.763 7.713q-3.966 3.938-7.923 7.884A10934 10934 0 0 1 202 198c-6.537-3.1-11.82-8.116-16-14v-2l-1.625-.688c-5.384-2.975-9.111-7.09-13.031-11.714-3.942-4.37-8.168-8.46-12.365-12.582l-1.944-1.918-1.77-1.734C154 152 154 152 154 151c4.978-1 9.71-1.136 14.76-1.114" fill="#0290B6"/><path d="M202 0q13.342-.106 26.684-.155 6.198-.022 12.397-.071C258.948-.372 276.385-.468 294 3c0 3 0 3-1.632 4.993l-2.315 2.295-2.609 2.608-2.85 2.803-2.892 2.88a2506 2506 0 0 1-7.635 7.56c-2.6 2.569-5.19 5.146-7.782 7.722A7057 7057 0 0 1 251 49l-5.259-4.462c-2.78-2.456-5.079-5.26-7.456-8.097-1.842-1.968-3.652-3.65-5.695-5.39-5.711-4.924-10.982-10.294-16.302-15.633a2365 2365 0 0 0-5.436-5.43l-3.446-3.449-1.647-1.641C202 1.115 202 1.115 202 0" fill="#0291B7"/><path d="M13 15c3 1.346 5.08 2.835 7.392 5.165l1.94 1.94 2.059 2.09 2.135 2.144a3014 3014 0 0 1 6.724 6.786l4.57 4.598Q43.417 43.354 49 49c-3.415 7.065-9.046 12.277-15.008 17.262-2.45 2.137-4.7 4.431-6.992 6.738l-4.505 4.53q-3.46 3.48-6.926 6.956l-3.66 3.68q-2.647 2.665-5.3 5.322l-1.66 1.676A229 229 0 0 1 1 99H0a3213 3213 0 0 1-.207-22.013c-.021-3.409-.049-6.817-.095-10.226-.052-3.935-.071-7.87-.089-11.804l-.062-3.641C-.456 40.78 1.583 30.61 7.625 21.812c.59-.88 1.18-1.76 1.79-2.667C11 17 11 17 13 15" fill="#0191B8"/><path d="m53.883-.293 3.925.013c3.41.011 6.82.04 10.229.074 3.493.03 6.986.044 10.479.06C85.344-.115 92.172-.063 99 0c-3.114 3.684-6.207 7.341-9.656 10.719l-1.91 1.886-3.868 3.79a163 163 0 0 0-10.27 11.113c-1.514 1.742-3.133 3.222-4.921 4.68C62.579 37.104 57.33 42.59 52 48c-2.908-1.315-5.006-2.734-7.25-5l-1.578-1.562C42 40 42 40 42 38l-1.625-.687C34.635 34.14 29.789 29.334 26 24v-2l-1.766-.805c-2.296-1.228-4.038-2.598-5.984-4.32l-1.86-1.633L15 14C25.452 2.154 38.73-.482 53.883-.293" fill="#0291B7"/><path d="M151 380h30l1 3 1.813.875c2.905 1.494 4.205 3.543 6.187 6.125 2.338 2.455 4.537 4.675 7.313 6.625L199 398v3a104 104 0 0 1-5 4l-2.437 2.438C189 410 189 410 186.188 412.188c-3.663 2.963-6.34 6.665-9.16 10.41-2.135 2.53-4.403 4.397-7.028 6.402-2.623 2.495-4.941 4.922-7.125 7.813L161 439h-3l-.687 1.75C156 443 156 443 151 447z" fill="#0191B7"/><path d="M352 52a253 253 0 0 1 3.52 4.297c1.506 1.733 3.079 3.125 4.855 4.578 3.378 2.792 6.111 5.92 8.941 9.254 1.797 2.086 1.797 2.086 4.684 4.371 3.17 2.641 5.662 5.5 8.32 8.637 2.02 2.24 4.316 4 6.68 5.863v2l3 1c1.605 1.629 1.605 1.629 3.188 3.563l1.605 1.94L398 99c-1.415 4.503-3.575 6.804-7 10a877 877 0 0 0-3.812 3.813L384 116c-3.11-1.365-4.985-2.866-7.25-5.375C362.485 96.042 343.91 86.323 326 77c1.691-3.76 3.733-5.487 7-8l1-2h2l.688-1.687C339.115 61.036 346.615 52 352 52" fill="#0291B7"/><path d="M402 102v2l3 1v2l3 1c1.43 1.453 1.43 1.453 2.875 3.25 3.213 3.88 6.48 7.495 10.5 10.563 2.987 2.489 5.333 5.265 7.844 8.222 1.643 1.813 3.307 3.32 5.219 4.84L437 137v2l3 1c1.535 1.594 1.535 1.594 3.063 3.5 2.114 2.681 2.114 2.681 4.937 4.5 0 4 0 4-1.355 5.527l-1.832 1.41c-4.19 3.364-7.853 6.882-11.25 11.063-2.712 3.175-5.176 5.57-8.563 8-3-1-3-1-4.691-4.035q-.945-2.01-1.872-4.028C409.75 147.918 397.988 133.092 385 118c1.945-4.244 4.661-6.993 7.938-10.25l1.63-1.68C398.634 102 398.634 102 402 102" fill="#0391B7"/><path d="M423 325c2.908 1.315 5.006 2.734 7.25 5l1.578 1.563C433 333 433 333 433 335l1.61.617c3.419 1.978 5.903 4.686 8.64 7.508l1.68 1.707q2.04 2.079 4.07 4.168c-4.94 5.961-10.285 11.415-15.773 16.871l-2.8 2.795q-3.65 3.645-7.309 7.284-3.742 3.73-7.481 7.462Q408.322 390.711 401 398q-1.929-1.43-3.853-2.863l-2.168-1.61a43.4 43.4 0 0 1-6.041-5.652l-1.786-1.945C386 384 386 384 386.07 382.066c1.236-2.746 2.909-4.714 4.868-7.003l2.464-2.95 1.297-1.548C406.386 356.51 415.076 341.43 423 325m-40 59c5.661 4.698 10.852 9.747 16 15-4.94 5.961-10.285 11.415-15.773 16.871l-2.8 2.795q-3.65 3.645-7.309 7.284-3.742 3.73-7.481 7.462Q358.322 440.711 351 448c-3.93-3.316-7.777-6.651-11.402-10.305l-2.256-2.265-2.28-2.305-2.36-2.375A3393 3393 0 0 1 327 425c1-3 1-3 2.82-4.192l2.38-1.156 2.644-1.319c.939-.46 1.877-.92 2.844-1.396 9.1-4.613 17.27-9.683 25.312-15.937l2.723-2.086c6.005-4.697 11.665-9.756 17.277-14.914" fill="#0291B7"/><path d="M300 301c7.386 6.256 7.386 6.256 10.527 9.43l1.71 1.718 1.7 1.727 1.784 1.797q2.142 2.161 4.279 4.328c-1.278 3.835-3.576 5.34-6.687 7.688l-1.756 1.33c-12.733 9.445-26.398 15.736-41.87 19.295l-2.245.52c-4.907 1.053-9.424 1.32-14.442 1.167 1.518-3.575 3.616-5.858 6.358-8.585l2.73-2.73 2.951-2.92 3.018-3.009a4065 4065 0 0 1 7.94-7.89c2.706-2.685 5.405-5.376 8.105-8.065Q292.043 308.892 300 301" fill="#0490B6"/><path d="M349 253c1.394 25.306-10.716 48.483-27 67l-2.387-2.395a180 180 0 0 0-4.425-4.293C314 312 314 312 314 310l-1.734-.742c-2.646-1.47-4.415-3.211-6.516-5.383l-2.14-2.195L302 300c4.81-5.788 9.974-11.12 15.3-16.434l2.658-2.66q2.763-2.764 5.53-5.524a3736 3736 0 0 0 5.676-5.677q4.096-4.104 8.2-8.201l2.578-2.585 2.368-2.358 2.092-2.09C348 253 348 253 349 253" fill="#0391B6"/><path d="M254 150c24.233 1.78 47.558 10.558 65 28-.062 1.875-.062 1.875-1 4a207 207 0 0 1-5 4 109 109 0 0 0-3 3.438c-2.532 3.02-5.051 5.932-8 8.562h-3a257 257 0 0 1-4-5 115 115 0 0 0-3.437-2.937c-3.283-2.724-5.837-5.778-8.563-9.063a324 324 0 0 0-4.414-3.602c-1.802-1.589-3.289-3.31-4.836-5.148-3.505-4.148-7.456-7.592-11.613-11.074-2.276-2.317-3.043-4.163-4.137-7.176-2.017-1.344-2.017-1.344-4-2z" fill="#0390B6"/><path d="M0 301c5 3 5 3 6 6l3 1a231 231 0 0 1 3.48 4.254c2.292 2.633 4.935 4.808 7.583 7.074 2.46 2.123 4.744 4.274 6.937 6.672v2l3 1v2l1.688.688c2.959 1.68 4.973 3.853 7.312 6.312l1.813 1.688C42 341 42 341 42 343l3 1c2.188 1.938 2.188 1.938 4 4v2H0zm150 150c3.608 1.804 5.476 3.206 8.25 6l2.14 2.125C162 461 162 461 162 463l3 1c1.36 1.418 1.36 1.418 2.75 3.188 2.62 3.18 5.419 5.783 8.586 8.406 2.364 1.998 4.506 4.19 6.664 6.406l2.313 2.188C187 486 187 486 187 488h2c1.332 1.355 1.332 1.355 2.813 3.188 2.591 3.189 5.228 5.853 8.187 8.812h-50z" fill="#0291B7"/><path d="M320 181c11.21 4.662 18.269 21.666 22.813 32.25 4.341 10.978 6.401 20.929 6.187 32.75-4.875-2.625-4.875-2.625-6-6l-3-1-1.125-2.125c-2.355-3.61-5.243-5.562-8.672-8.117-1.904-1.52-3.334-2.918-4.828-4.82-1.887-2.334-3.473-3.944-5.75-5.813-3.393-2.808-6.21-5.932-9.047-9.293-1.54-1.851-1.54-1.851-3.281-3.445C306 204 306 204 306 202l-4-1c1.57-3.855 4.048-6.114 7-9q1.449-1.445 2.895-2.895z" fill="#0490B5"/><path d="M211 228v61h-1v-21l-8 4c-4.732.99-8.12.473-12.375-1.812-6.198-5.165-8.138-9.948-9.062-18 .194-5.638 2.485-10.96 4.437-16.188h2l.75-1.828c4.576-7.95 15.33-8.812 23.25-6.172" fill="#015A74"/><path d="M350 451c4.922 4.119 9.512 8.416 14 13q1.467 1.47 2.938 2.938L369 469c-3.301 3.817-7.106 5.764-11.625 7.813l-2.255 1.038C322.88 492.482 322.88 492.482 310 492l1.172-1.355 1.578-1.832 1.676-1.946a107 107 0 0 0 3.512-4.43c2.24-2.648 4.672-4.746 7.328-6.964 3.196-2.714 6.053-5.588 8.609-8.91 2.254-2.719 4.679-4.827 7.383-7.079 2.383-2.03 4.56-4.24 6.742-6.484zm142-143h1c-.573 7.253-2.622 13.75-4.937 20.625l-1.198 3.566c-2.733 7.941-5.752 15.704-9.178 23.372l-1.236 2.809-1.19 2.57-1.032 2.24c-1.47 2.175-2.822 2.851-5.229 3.818l-3-2v-2l-1.75-.687c-2.847-1.661-4.37-3.628-6.25-6.313v-2l-1.875-.812C454 352 454 352 452 349l8.105-8.105 1.458-1.46a1037 1037 0 0 1 4.183-4.146c2.287-2.23 2.287-2.23 4.129-4.726 2.693-3.248 5.69-6.1 9.125-8.563h2l.746-1.742c1.452-2.614 3.157-4.321 5.317-6.383 2.853-2.654 2.853-2.654 4.937-5.875" fill="#0391B7"/><path d="M471 132c5.861 12.275 11.366 24.587 16.188 37.313l.758 1.994c2.342 6.264 4.383 11.948 4.054 18.693-4.966-4.168-9.659-8.5-14.246-13.078l-1.988-1.978a3068 3068 0 0 1-4.111-4.104 2261 2261 0 0 0-6.333-6.293l-4.006-4-1.922-1.9C455 154.229 455 154.229 455 152l-3-1c1.387-3.12 3.002-5.259 5.406-7.672l2.004-2.012 2.09-2.066 2.09-2.113 2.004-1.996 1.834-1.828C469 132 469 132 471 132" fill="#0291B7"/><path d="m306 6 6 1v3c1.19 1.626 1.19 1.626 2.858 3.199l1.893 1.892 2.073 2.026 2.117 2.104a1982 1982 0 0 0 6.747 6.654q2.25 2.227 4.498 4.457c3.37 3.341 6.745 6.68 10.137 10a129 129 0 0 1 3.148 3.237c1.124 1.195 2.32 2.321 3.529 3.431 3.023.317 3.023.317 4.901-1.56l2.11-2.159 2.296-2.324 2.38-2.457 2.417-2.457A1282 1282 0 0 0 369 30l1 2-2 3h-2l-1 3a164 164 0 0 1-4.367 3.676C358.21 43.64 356.05 45.649 354 48c-.411 3.947-.411 3.947 1.746 6.227l2.477 2.45 2.79 2.79 3.05 2.986q1.548 1.537 3.093 3.077c2.714 2.698 5.44 5.385 8.168 8.069 2.782 2.74 5.553 5.493 8.324 8.245A6036 6036 0 0 0 400 98q1.66-1.387 3.313-2.781l1.863-1.565c1.782-1.615 3.3-3.296 4.824-5.154 2.528-3.06 5.269-5.562 8.332-8.078 1.92-1.588 1.92-1.588 4.418-4.297C425 74 425 74 428 74l-25 25c1.507 3.532 3.554 5.796 6.266 8.493l2.67 2.669 2.884 2.854q1.476 1.47 2.951 2.942 3.876 3.862 7.763 7.713 3.966 3.938 7.923 7.884Q441.22 139.285 449 147c3.795-1.753 6.071-4.002 9-7l6-5c1.708-1.632 3.354-3.305 5-5 0 3 0 3-1.469 4.778l-2.031 1.945-2.187 2.13-2.313 2.21a1007 1007 0 0 0-4.5 4.347l-2.031 1.942c-1.69 1.529-1.69 1.529-1.469 3.648 1.627 1.728 3.286 3.362 5 5a1169 1169 0 0 1 3.597 3.597l2 2L491 189l2-1v5c-12.292-8.876-12.292-8.876-14-14l-3-1v-2l-1.812-.812C472.002 174 470.587 172.904 469 171v-2l-1.937-.812C465 167 465 167 464 164l-1.812-.875c-2.888-1.485-4.191-3.584-6.188-6.125a115 115 0 0 0-5-4c-3.863 1.585-6.289 4.06-9.203 7.008l-1.463 1.471a1400 1400 0 0 0-4.584 4.646l-3.125 3.152A2895 2895 0 0 0 425 177l-2-3 1.758-1.285c3.948-2.964 7.534-5.828 10.68-9.653L438 160h2l.75-1.75c1.433-2.58 3.034-4.311 5.25-6.25h2v-4l-3-1c-1.324-1.383-1.324-1.383-2.687-3.125-2.878-3.512-6.06-6.342-9.579-9.2-1.837-1.775-2.637-3.395-3.734-5.675a179 179 0 0 0-4-2l-1-3-1.812-.875c-2.902-1.492-4.145-3.571-6.188-6.125a178 178 0 0 0-4-3.5c-3.066-2.61-5.548-5.293-8-8.5l-2-1v-2c-4.548 2.405-7.774 5.537-11.312 9.188l-1.667 1.693A1041 1041 0 0 0 385 117c0-3 0-3 1.46-4.719l1.915-1.781c2.275-2.135 3.872-3.871 5.625-6.5h2c1.05-2.14 1.05-2.14 1-5-2.091-3.236-4.524-6.262-8-8v-2l-1.687-.625c-2.558-1.52-4-3.35-5.829-5.664-2.275-2.623-4.913-4.785-7.546-7.04-2.46-2.122-4.745-4.273-6.938-6.671v-2l-3-1v-2l-1.937-.812C360 62 360 62 359 59a89 89 0 0 0-4-2c-1.75-1.5-1.75-1.5-3-3v-2c-8.89 6.612-8.89 6.612-16 15h-2l-1 3a173 173 0 0 1-6 5l-2 2c0-3 0-3 2.111-5.42q1.45-1.427 2.92-2.834l1.547-1.52a968 968 0 0 1 4.922-4.788q2.467-2.394 4.922-4.8a421 421 0 0 1 3.071-2.982c1.207-1.18 2.363-2.414 3.507-3.656v-2l-2-1.5-2-1.5v-2l-1.75-.687c-2.845-1.66-4.187-3.734-6.25-6.313a178 178 0 0 0-4-3.5c-3.072-2.618-5.507-5.319-8-8.5l-2.75-2.187L319 21v-2l-1.773-.746c-2.571-1.448-3.982-3.046-5.852-5.317-2.33-2.916-2.33-2.916-5.375-4.937z" fill="#016787"/><path d="M201.08.07c2.144 1.038 3.472 2.127 5.14 3.826l1.831 1.841 1.945 2.001 2.032 2.052c2.144 2.167 4.277 4.344 6.41 6.523q3.195 3.248 6.398 6.49 1.992 2.016 3.974 4.043c3.247 3.3 6.522 6.315 10.19 9.154 1.794 1.946 3.468 3.962 5.156 6 2.1 2.277 4.413 4.088 6.844 6l1.643-1.677a4432 4432 0 0 1 15.36-15.585 1959 1959 0 0 0 7.896-8.015q3.798-3.876 7.625-7.722 1.459-1.473 2.904-2.958a445 445 0 0 1 4.079-4.117l2.342-2.376C295 4 295 4 297.28 4.255L299 5l-2.375.75C293.495 7.24 293.46 7.994 292 11c-1.478 1.253-2.959 2.504-4.48 3.703-2.16 1.844-3.773 4.068-5.52 6.297l-3 2-1 3c-3.444 3-3.444 3-6 3l-.75 1.75c-1.433 2.58-3.034 4.311-5.25 6.25h-2l-.75 1.734c-1.443 2.616-3.132 4.414-5.25 6.516l-2.125 2.14C254 49 254 49 252 49v2l1.797.773c2.415 1.345 3.715 2.72 5.453 4.852l1.578 1.914L262 60l-3 1-7-8-5 1v2a91 91 0 0 1-4 4l-3-1 8-8c-1.87-3.74-3.36-5.603-6.266-8.493l-2.67-2.669-2.884-2.854q-1.476-1.47-2.951-2.942a3884 3884 0 0 0-7.763-7.713q-3.966-3.938-7.923-7.884A10934 10934 0 0 0 202 3c-3.512 1.503-5.784 3.53-8.477 6.219-.878.87-1.755 1.742-2.659 2.64q-1.423 1.427-2.844 2.856l-2.936 2.93a2885 2885 0 0 0-6.13 6.14 2495 2495 0 0 1-7.868 7.862q-3.03 3.02-6.05 6.05-1.45 1.452-2.904 2.898a1042 1042 0 0 0-4.043 4.057c-1.15 1.154-1.15 1.154-2.325 2.33-1.97 1.991-1.97 1.991-2.764 5.018l1.75.625c3.064 1.873 4.405 4.345 6.25 7.375-3.817-1.555-6.192-4.036-9-7-3.053 1.13-4.608 2.614-6.563 5.125L143 61h-3c1.444-3.239 3.258-5.62 5.625-8.25l1.914-2.14L149 49h-2v-2h-2c-1.332-1.355-1.332-1.355-2.813-3.187-3.4-4.092-6.906-7.783-11.062-11.125-3.202-2.61-5.789-5.635-8.465-8.77-2.104-2.431-4.357-4.676-6.66-6.918L106 7l1-2c7.768 5.193 7.768 5.193 10 9v2l3 1c2.687 2.438 2.687 2.438 5 5v2l2.187.625c3.014 1.473 4.524 3.169 6.56 5.797 1.391 1.813 1.391 1.813 3.815 4.14C140 37 140 37 142 39.563c1.96 2.564 1.96 2.564 4.75 4.626L149 46v2c3.785-2.088 6.62-4.397 9.635-7.487l2.69-2.74 1.415-1.455q2.207-2.263 4.428-4.51 6.308-6.394 12.579-12.822 3.845-3.94 7.72-7.85 1.472-1.492 2.93-3c1.354-1.4 2.725-2.783 4.097-4.166l2.35-2.402C199 0 199 0 201.08.07" fill="#006588"/><path d="m287 238 3 2c.293 2.164.293 2.164.188 4.625l-.083 2.477L290 249c1.97-.354 1.97-.354 4-1 1.167-1.917 1.167-1.917 2-4 2-2 2-2 4.875-2.25 2.981.238 4.614.705 7.125 2.25v-2h6c2.744 5.488-.613 14.305-2 20h2l1-4 4 2c-.322 2.975-.621 4.593-2.687 6.813-2.997 1.538-4.98 1.534-8.313 1.187-2.375-1-2.375-1-4-2l-1.687 1.563C300 269 300 269 297.5 268.938c-3.247-1.218-4.476-2.076-6.5-4.938-2.649-8.213-3.003-17.45-4-26" fill="#005A73"/><path d="M101.215.113C103.571 1.284 104.07 2.595 105 5l-5-2-46 46 2 4 1 3q1.988 1.026 4 2l2 3c-3.626-.57-5.255-1.924-7.75-4.563l-1.86-1.94c-.458-.495-.917-.988-1.39-1.497-3.532 1.507-5.796 3.554-8.493 6.266l-2.669 2.67-2.854 2.884q-1.47 1.476-2.942 2.951a3884 3884 0 0 0-7.713 7.763q-3.938 3.966-7.884 7.923A10934 10934 0 0 0 4 99c1.507 3.532 3.554 5.796 6.266 8.493l2.67 2.669 2.884 2.854q1.476 1.47 2.951 2.942 3.876 3.862 7.763 7.713 3.966 3.938 7.923 7.884A10934 10934 0 0 0 50 147l-2 2-48-48c2.032-4.065 4.426-6.715 7.594-9.86l1.658-1.664q1.731-1.733 3.47-3.459a1112 1112 0 0 0 5.313-5.326l3.371-3.363 1.607-1.619C26.77 72 26.77 72 29 72l.781-1.766c1.317-2.414 2.77-4.051 4.719-5.984l1.844-1.86C38 61 38 61 40 61l.625-1.625C42.58 55.998 45.182 53.695 48 51c-1.346-3-2.835-5.08-5.165-7.392l-1.94-1.94-2.09-2.059-2.144-2.135a3014 3014 0 0 0-6.786-6.724l-4.598-4.57A5905 5905 0 0 0 14 15l3-1 5.125 5.129a598 598 0 0 0 4.563 4.496C29 26 29 26 30.75 28.375c2.082 2.43 4.015 4.037 6.563 5.937 4.006 2.993 7.04 6.227 10.082 10.184C49.12 46.456 49.12 46.456 53 46c2.083-1.563 2.083-1.563 4.04-3.719l2.257-2.324 2.328-2.457q2.294-2.397 4.602-4.781l2.049-2.158C70 29 70 29 72 29l.813-1.938C74 25 74 25 77 24c.684-1.324 1.347-2.66 2-4 3.121-3.6 6.517-6.934 9.875-10.313l2.762-2.86c.88-.888 1.76-1.776 2.668-2.69l2.437-2.478C99 0 99 0 101.215.113" fill="#006989"/><path d="m197 401 1 3-1.677 1.643a4432 4432 0 0 0-15.585 15.36 1959 1959 0 0 1-8.015 7.896q-3.876 3.798-7.722 7.625-1.473 1.459-2.958 2.904a445 445 0 0 0-4.117 4.079l-2.376 2.342c-1.745 1.98-1.745 1.98-1.55 4.15 1.324 2.649 3.004 4.402 5.09 6.51l2.63 2.678q1.43 1.433 2.862 2.864l2.926 2.95q3.066 3.084 6.147 6.155c2.633 2.627 5.248 5.272 7.858 7.923 2.008 2.034 4.027 4.056 6.05 6.076q1.455 1.455 2.896 2.924a426 426 0 0 0 4.064 4.059l2.332 2.339c1.978 1.716 1.978 1.716 4.146 1.524 2.66-1.332 4.372-3.03 6.46-5.154l2.65-2.669 2.834-2.9q1.462-1.48 2.928-2.956 3.85-3.886 7.682-7.787a4357 4357 0 0 1 12.315-12.478c1.437-1.454 2.867-2.914 4.298-4.374l2.63-2.66 2.318-2.36C247 451 247 451 249 451c-1.37-3.161-1.99-3.993-5-6v-2h-2l-1-3c2.604 1.116 4.061 2.067 6 4.188 1.79 2.014 1.79 2.014 3.938 1.875 2.917-1.503 4.852-3.669 7.062-6.063l3 1-1.566 1.39-1.997 1.86-2.003 1.828c-1.66 1.776-1.66 1.776-1.251 3.796 1.028 2.675 2.41 4.06 4.458 6.06l2.246 2.216 2.363 2.288 2.316 2.275q2.156 2.116 4.322 4.222A790 790 0 0 1 277 474l2.372 2.372L299 496h-4v-2l-1.75-.687c-2.83-1.65-4.233-3.746-6.25-6.313a263 263 0 0 0-5-4c-2.812-2.625-2.812-2.625-5-5v-2l-3-1c-2.687-2.437-2.687-2.437-5-5v-2l-3-1c-1.43-1.453-1.43-1.453-2.875-3.25-2.557-3.096-5.244-5.947-8.125-8.75l-3-3c-3.617 1.529-5.92 3.678-8.677 6.45l-2.79 2.79-2.986 3.018-3.077 3.085q-4.04 4.055-8.069 8.118-4.118 4.146-8.245 8.285A11965 11965 0 0 0 202 500l-5-2v-2l-3-1c-2.687-2.437-2.687-2.437-5-5v-2h-2c-1.227-1.285-1.227-1.285-2.625-3.062-2.956-3.6-6.237-6.513-9.836-9.458L173 474v-2l-1.687-.625c-2.604-1.548-4.165-3.45-6.036-5.805-1.923-2.365-4.097-4.442-6.277-6.57l-1.8-1.832-1.887-1.918-1.762-1.797c-1.506-1.55-1.506-1.55-3.551-2.453.596-3.578 2-5.544 4.375-8.25l1.836-2.14C158 439 158 439 161 439l.688-1.75c1.653-2.834 3.742-4.218 6.312-6.25a381 381 0 0 0 5-6l5-5 2.25-2.875c2.747-3.39 6.116-5.775 9.59-8.379 2.86-2.311 4.948-4.82 7.16-7.746" fill="#006789"/><path d="m208 232-.07 2.336-.055 3.039-.07 3.023c-.077 2.765-.077 2.765 2.195 4.602.883 5.578 1.53 11.54-1.543 16.48-3.308 3.104-5.72 4.385-10.207 5.207-3.25-.687-3.25-.687-5.625-2.062-3.15-5.09-3.18-11.124-1.875-16.875 2.753-8.258 7.164-17.226 17.25-15.75" fill="#0290B6"/><path d="m150 52 3 1v2l1.75.875C157 57 157 57 158.644 58.053c3.393 1.364 6.705 1.234 10.306 1.222l2.415.015c2.631.014 5.262.013 7.893.01l5.484.014q5.742.01 11.484.002c4.914-.006 9.828.01 14.743.034 3.772.015 7.545.016 11.318.013q2.719 0 5.438.015a767 767 0 0 0 7.584-.006l2.283.023c2.294.012 2.294.012 5.408-.395l2-3h2v-2l5-2a517 517 0 0 1 3.5 3.375l1.969 1.898C259 59 259 59 259 61H143c1.952-3.904 3.874-6.038 7-9" fill="#2990A9"/><path d="M38 264v2c-3.462 3-3.462 3-6 3l-.75 1.75c-1.433 2.58-3.034 4.311-5.25 6.25h-2l-1 3h-2l-.754 1.746c-1.424 2.576-3.07 4.274-5.183 6.317l-2.09 2.035L11 292l-1.629 1.746C8 295 8 295 6 295l-2 6 46 46c3.707-1.854 5.542-3.299 8.401-6.174l2.608-2.609 2.788-2.819 2.875-2.883a3707 3707 0 0 0 7.536-7.585c2.564-2.585 5.133-5.163 7.702-7.743A10436 10436 0 0 0 97 302c0 4.049-1.293 5.016-4 8a195 195 0 0 1-5.27 4.531C83.316 318.278 79.687 322.556 76 327c-2.187 2.375-2.187 2.375-4 4h-2l-.687 1.75c-1.66 2.846-3.705 4.248-6.313 6.25-2.768 2.63-5.24 5.294-7.562 8.313L53 350h-4c-1.28-1.412-2.552-2.837-3.715-4.348-2.554-3.283-5.505-6.047-8.785-8.59-2.923-2.411-5.106-5.13-7.5-8.062-2.536-2.666-5.075-5.06-7.937-7.375-2.905-2.363-5.176-5.055-7.56-7.93C11.238 311.14 8.657 309.148 6 307c-2.875-2.562-2.875-2.562-5-5 0-4.397.218-4.764 3-7.812l1.688-1.895c1.929-1.913 3.888-3.668 5.949-5.434 5.925-5.127 11.296-10.816 16.736-16.447l2.459-2.502 2.21-2.277C35 264 35 264 38 264" fill="#00698A"/><path d="M495 202c.74 1.725.74 1.725 1 4-1.512 2.113-1.512 2.113-3.834 4.401l-2.609 2.608-2.866 2.788q-1.45 1.436-2.896 2.875c-2.542 2.523-5.1 5.03-7.66 7.536-2.609 2.558-5.204 5.13-7.801 7.702A4235 4235 0 0 1 453 249l2 6-5-3-2.152 2.188-2.786 2.812-2.777 2.813C440 262 440 262 439 262v-24c7 6 7 6 10 9l3 1 .757-1.744c1.418-2.574 3.037-4.284 5.126-6.35l2.417-2.407 2.61-2.57 2.675-2.658a3597 3597 0 0 1 7.037-6.972q4.97-4.915 9.929-9.841 2.64-2.622 5.288-5.235l2.407-2.388 2.129-2.103c1.703-1.65 1.703-1.65 2.625-3.732" fill="#006787"/><path d="M59 60h1v180h-1l.002-3.035q.006-14.168-.082-28.337c-.03-4.857-.047-9.712-.04-14.568q.007-7.033-.059-14.064a454 454 0 0 1-.001-5.36 411 411 0 0 0-.047-7.52l.037-2.23c-.102-4.24-.94-6.456-3.858-9.393L52 153l-1.812.938C48 155 48 155 45 156l2-4 .813-2.062C49.403 147.34 51.376 146.5 54 145c3.194-2.4 3.932-3.537 4.519-7.556q.044-2.167.027-4.334l.031-2.395c.03-2.609.031-5.216.032-7.824q.023-2.716.05-5.431c.044-4.761.064-9.522.08-14.283.019-4.86.06-9.72.1-14.58.076-9.532.126-19.064.161-28.597" fill="#117D99"/><path d="M183 380q6.468-.042 12.938-.062l3.732-.026 3.545-.01 3.285-.016C209 380 209 380 210 381c.71 7.107.71 7.107-2.187 10.75L205 394l-2.812 2.313L200 398a376 376 0 0 1-3-2.875l-1.687-1.617C194 392 194 392 194 390l-1.766-.777c-2.431-1.33-4.051-2.807-5.984-4.786l-1.86-1.878C183 381 183 381 183 380" fill="#0291B7"/><path d="m44 155 2 2c-2.894 3.979-6.202 6.998-9.914 10.172-3.185 2.79-6.123 5.806-9.086 8.828l-2.687 2.625c-2.325 2.293-2.325 2.293-4.125 4.75-2.476 2.971-5.214 5.338-8.149 7.844-2.822 2.465-5.423 5.1-8.039 7.781 1.625 4.12 4.607 6.862 7.707 9.902l1.704 1.696c1.796 1.785 3.599 3.562 5.402 5.34l3.603 3.576q3.327 3.302 6.661 6.595c2.652 2.62 5.29 5.253 7.923 7.891l1.761 1.761L50 247c2.738-1.274 4.966-2.652 7.25-4.625L60 240c-.472 4.248-2.889 6.268-6 9h-2v2h-3l-.687-1.75c-1.66-2.846-3.705-4.248-6.313-6.25-2.812-2.625-2.812-2.625-5-5v-2l-3-1c-2.687-2.437-2.687-2.437-5-5v-2l-3-1c-1.324-1.383-1.324-1.383-2.687-3.125-2.932-3.58-6.199-6.469-9.774-9.395L12 213v-2h-2c-4.767-4.302-4.767-4.302-6-8H2v-2H0c1.483-3.447 3.43-5.673 6.083-8.31l2.547-2.547 2.753-2.721 2.816-2.808q3.699-3.684 7.408-7.358 3.784-3.757 7.561-7.522Q36.576 162.36 44 155" fill="#006689"/><path d="M41 440h19v19l-7-6-3-2v2c-1.297 1.276-1.297 1.276-3.195 2.824-6.24 5.307-11.914 11.179-17.68 16.988l-3.453 3.467a6114 6114 0 0 0-6.277 6.31A1886 1886 0 0 1 15 487c0-4.621 2.875-6.795 6-10a265 265 0 0 1 6.105-5.29c1.79-1.615 3.271-3.264 4.77-5.147L34 464h2l1-3c1.488-1.465 1.488-1.465 3.313-2.937l1.894-1.583L44 455c2.463-1.957 2.463-1.957 4-4-.925-4.969-.925-4.969-7-11" fill="#016385"/><path d="M210 410h1v29q10.971-.163 21.941-.339 5.111-.083 10.223-.158 5.89-.089 11.781-.187l3.626-.05c8.17-.14 16.284-.608 24.429-1.266v2l-2.2.088c-3.31.15-6.617.343-9.925.537l-3.46.137c-7.27.33-7.27.33-12.97 4.386L252 447c-4.427-.535-6.762-3.13-10-6l-2 1a138 138 0 0 1-6.504-.086l-3.932-.133-2.05-.078a992 992 0 0 0-6.215-.21c-10.171-.365-10.171-.365-11.299-1.493a153 153 0 0 1-.098-6.66l.005-2.014c.005-2.13.018-4.259.03-6.389q.008-2.16.014-4.322.017-5.307.049-10.615" fill="#1F819A"/><path d="M60 243v46h30v1H59c-.125-15.125-.125-15.125-.118-19.864.117-8.302.117-8.302-3.937-15.128L52 253c-2.958.708-2.958.708-6 2l-.937 1.875c-1.31 2.62-2.814 3.69-5.188 5.375l-2.195 1.578L36 265c1.584-3.809 3.997-6.33 6.875-9.25l2.617-2.703C48 251 48 251 52 251v-2c1.496-1.508 1.496-1.508 3.438-3.125l1.933-1.633C59 243 59 243 60 243" fill="#137996"/><path d="M150 150h10v1l-5 1 1.848 1.848C176 173 176 173 178.67 175.708c2.243 2.314 2.243 2.314 4.706 4.042 2.43 2.082 4.037 4.015 5.938 6.563 3.414 4.542 7.278 8.126 11.687 11.687l-2 2-1.77-1.778q-8.253-8.28-16.51-16.554-4.246-4.254-8.489-8.512a7684 7684 0 0 0-8.189-8.209l-3.126-3.137a2348 2348 0 0 0-4.374-4.382l-2.517-2.523c-1.882-1.953-1.882-1.953-4.025-2.905z" fill="#016A8A"/><path d="M208 232h1l.184 2.371.254 3.066c.08 1.01.162 2.02.246 3.06.048 2.44.048 2.44 1.316 3.503a63 63 0 0 1 .114 4.244v2.73l-.016 2.967-.005 3.023c-.005 3.2-.018 6.399-.03 9.599q-.008 3.244-.014 6.49-.017 7.974-.049 15.947h-1v-21l-8 4c-2.68.46-2.68.46-4.875.375l-2.242-.04C193 272 193 272 191 270h11v-3h-8l-1-2c.568.07 1.137.14 1.723.21 4.337.305 7.662.137 11.34-2.335 2.532-2.427 2.925-3.794 3.437-7.32.06-3.597.016-6.994-.5-10.555l-2-2c.023-2.602.023-2.602.375-5.625l.336-3.04z" fill="#09647F"/><path d="m301 246 5 1-.219 2.668-.281 3.52-.281 3.48c-.27 3.238-.27 3.238-.114 6.11C305 265 305 265 302.812 267.374 300 269 300 269 297.313 268.938 295 268 295 268 293 265l8 1v-3l-4-1c-.476-6.693-.4-10.775 4-16" fill="#016885"/><path d="m450 251 4 4-2.312-.312L449 255c-1.628 2.323-1.628 2.323-3 5l-2.062 1.438c-3.434 2.768-3.844 6.724-4.317 10.957l-.183 3.418C439.1 281.9 439.1 281.9 438 283a70 70 0 0 0-.562 4.063L437 291h2c-1.125 2.972-2.223 5.334-4 8l4 2-2 2h-4l-.375 1.938L432 307l-2 1 .77-3.121c1.83-7.53 3.523-15.056 4.855-22.692l.388-2.146c.552-3.134 1-6.214 1.23-9.389.803-9.435 5.863-13.795 12.757-19.652" fill="#1489AB"/><path d="m297 246 3 1-1 1.875c-1.404 4.387-1.16 8.557-1 13.125l3 1v3c-1.46-.06-2.918-.149-4.375-.25l-2.46-.14c-2.165-.61-2.165-.61-3.42-2.42-1.189-3.491-1.652-6.625-.746-10.191 2.042-2.704 4.381-4.862 7-7" fill="#005A72"/><path d="M297.275 4.26 299 5l-2.375.75C293.495 7.24 293.46 7.994 292 11c-1.478 1.253-2.959 2.504-4.48 3.703-2.16 1.844-3.773 4.068-5.52 6.297l-3 2-1 3c-3.444 3-3.444 3-6 3l-.75 1.75c-1.433 2.58-3.034 4.311-5.25 6.25h-2l-.742 1.734c-1.47 2.646-3.211 4.415-5.383 6.516l-2.195 2.14L254 49l-2-2a4311 4311 0 0 1 16.612-16.871 1900 1900 0 0 0 7.715-7.833c2.472-2.527 4.956-5.04 7.45-7.547a671 671 0 0 0 4.214-4.306l2.608-2.61 2.288-2.32C295 4 295 4 297.275 4.26" fill="#016A8B"/><path d="m264 286 2 1-2 3h-3c-1.688 1.438-1.688 1.438-3 3l-2-1a68 68 0 0 0-4.266-.205l-2.67-.06-2.884-.051-2.951-.063q-4.677-.097-9.354-.183l-6.332-.131q-7.77-.162-15.543-.307v-2l1.706-.025q8.809-.13 17.618-.292 3.285-.058 6.57-.105c3.153-.046 6.305-.104 9.458-.164l2.955-.035c5.001-.108 8.955-.623 13.693-2.379" fill="#1A89A6"/><path d="M97 302c0 4.049-1.293 5.016-4 8a195 195 0 0 1-5.27 4.531C83.316 318.278 79.687 322.556 76 327c-2.187 2.375-2.187 2.375-4 4h-2l-.687 1.75c-1.66 2.846-3.705 4.248-6.313 6.25-2.77 2.632-5.269 5.314-7.625 8.313L53 350h-3v-2c1.423-1.403 1.423-1.403 3.418-3.05 4.88-4.152 9.38-8.621 13.895-13.165l2.588-2.593q4.052-4.061 8.099-8.13l5.527-5.54Q90.268 308.764 97 302" fill="#00637F"/><path d="m439 240 2 1v2l1.813.813c2.233 1.212 3.686 2.134 5.187 4.187-.399 3.597-1.94 5.295-4.5 7.75l-1.906 1.86C440 259 440 259 439 259z" fill="#108DAD"/><path d="M308 242h6c2.744 5.488-.613 14.305-2 20h2l1-4 4 2c-.322 2.975-.621 4.593-2.687 6.813-2.913 1.495-5.083 1.407-8.313 1.187l-1-2 5-1-2-2c-.376-4.886.382-8.43 2-13 .375-2.327.72-4.66 1-7h-5z" fill="#006784"/><path d="m120.387 288.707 2.476.013c2.608.017 5.216.054 7.825.092q2.652.024 5.306.042 6.503.051 13.006.146v3l-37-1-2 5h-2c.37-2.147.854-3.769 2.019-5.618 3.177-2.216 6.636-1.748 10.368-1.675" fill="#1B8CA8"/><path d="M486 169c2.563 2.563 3.06 4.794 4.125 8.25l1.07 3.39c.782 3.263.957 6.022.805 9.36-8.366-7.05-8.366-7.05-11-10v-2h2l1-3 2 1z" fill="#0E8CAF"/><path d="M92 289h18c-5.893 7.232-5.893 7.232-10 9l-.75-1.875c-1.483-2.52-2.659-2.91-5.25-4.125z" fill="#058EB3"/><path d="M455 255c2.96 1.332 5.031 2.786 7.312 5.085l1.892 1.892 2.01 2.043 2.1 2.107c2.213 2.224 4.418 4.455 6.623 6.685l4.444 4.471q4.094 4.118 8.177 8.244 4.208 4.25 8.442 8.473l-1 2c-3.292-2.57-6.173-5.105-8.844-8.316-5.664-6.553-11.94-12.534-18.094-18.622a4886 4886 0 0 1-7.402-7.34l-1.723-1.697A241 241 0 0 1 455 256z" fill="#006085"/><path d="M208 231v1l-3.625.563c-5.041 1.25-7.66 4.123-10.375 8.437-3.025 6.4-4.037 14.389-2.062 21.25L193 265h-2c-3.592-9.236-3.975-15.542-.168-24.703 1.203-2.366 2.379-4.332 4.168-6.297h3v-2c3.215-1.607 6.436-1.057 10-1" fill="#006986"/><path d="m47 452 3 1-1.297 1.08c-6.891 5.877-13.204 12.31-19.578 18.733l-3.453 3.466a6114 6114 0 0 0-6.277 6.31A1886 1886 0 0 1 15 487c0-4.621 2.875-6.795 6-10a265 265 0 0 1 6.105-5.29c1.79-1.615 3.271-3.264 4.77-5.147L34 464h2l1-3c1.523-1.5 1.523-1.5 3.375-3 2.332-1.905 4.527-3.838 6.625-6" fill="#016688"/><path d="M18 483c3 3.75 3 3.75 3 6 2.788 1.033 3.868 1.045 6.75.063L30 488v7l10 2v2c-9.057-.412-17.198-5.257-24-11 .875-3.875.875-3.875 2-5" fill="#0A8DB3"/><path d="m432 198 1 2 2 .438 2 .562c1.092 3.275.81 3.844 0 7 .054 2.302.054 2.302.375 4.625l.273 2.352c.263 2.084.263 2.084 1.352 4.023.207 1.683.367 3.372.5 5.063.415 4.992.929 9.96 1.5 14.937l-2-1c-.654-2.709-.654-2.709-1.219-6.309l-.313-1.941c-.331-2.061-.65-4.124-.968-6.187q-.637-4.03-1.281-8.06l-.617-3.881A305 305 0 0 0 432 198" fill="#1C89A4"/><path d="M250 52c4.633 1.716 5.376 3.652 9 8h-16l2-4h2v-2z" fill="#088BA8"/><path d="M403 53c4.508 2.472 8.206 5.58 12.063 8.938l1.853 1.591c3.147 2.719 6.192 5.478 9.084 8.471-1.75 3.875-1.75 3.875-4 5v-4h-2v-2h-2l-.75-2.375c-1.46-3.064-2.3-3.242-5.25-4.625l-.937-1.937c-1.426-2.768-3.417-3.531-6.063-5.063v-2h-2z" fill="#1B8AA9"/><path d="m150 52 3 1v2l1.875.813C157 57 157 57 159 60h-16c5.875-6.875 5.875-6.875 7-8" fill="#0291B6"/><path d="M50 451c3.161 1.37 3.993 1.99 6 5l-1.75-.562c-2.6-.506-3.833-.53-6.25.562a264 264 0 0 0-3 5q-1.99 1.02-4 2c-1.68 1.408-1.68 1.408-3.234 3.04l-1.739 1.757-1.777 1.828-1.824 1.852Q30.207 473.732 28 476l-2-1q4.635-4.709 9.29-9.4 1.582-1.598 3.16-3.2 2.266-2.3 4.542-4.587l2.761-2.793C48 453 48 453 50 453z" fill="#058AAA"/><path d="M183 380q6.468-.042 12.938-.062l3.732-.026 3.545-.01 3.285-.016C209 380 209 380 210 381c.141 2.67.042 5.324 0 8h-1l-1-8-17 1c.646 4.882.646 4.882 3 8-3.187-1.403-5.322-3.078-7.75-5.562l-1.86-1.88C183 381 183 381 183 380" fill="#0B8CAC"/><path d="M423 325c3.326 1.526 4.956 2.933 7 6l-4 1v-2h-2l-.277 2.23c-.84 3.216-2.036 4.67-4.286 7.082l-1.94 2.114L416 343l-1-2c.62-1.696.62-1.696 1.652-3.695l1.104-2.168 1.182-2.262 1.17-2.285q1.437-2.8 2.892-5.59" fill="#108CA9"/><path d="M44 440h15l-4 5h-2l-1 3c-2 0-2 0-4.562-2.312C45 443 45 443 44 440" fill="#0C8BAE"/><path d="M208 264c2.163 1.724 2.939 2.576 3.34 5.36-.015.906-.03 1.812-.047 2.745l-.03 2.979c-.024 1.024-.05 2.048-.076 3.103l-.04 3.14A744 744 0 0 1 211 289h-1v-21l-8 4c-2.68.46-2.68.46-4.875.375l-2.242-.04C193 272 193 272 191 270l2.23-.113c7.404-.377 7.404-.377 13.77-3.887z" fill="#0D6D88"/><path d="M261 59h7v2l3.027-.035 3.91-.028 3.903-.035C282 61 282 61 283 62c2.685.563 5.363 1.08 8.063 1.563l2.298.42q2.82.512 5.639 1.017v2l-2.161-.367A910 910 0 0 0 280.395 64l-3.288-.5q-3.358-.51-6.718-1l-3.244-.5-2.927-.437L262 61z" fill="#1E8AA6"/><path d="M243 440h15l-6 7c-5.149-1.287-5.865-2.907-9-7" fill="#0490B5"/><path d="M210 392v14c-5.273-2.636-5.273-2.636-7-5 0-3.256 1.286-4.314 3.5-6.75C209 392 209 392 210 392" fill="#088DB0"/><path d="m250 152 3 1v2l3 1-1 2-2.5-1.437c-3.4-.939-3.4-.939-5.574.722-3.411 2.97-6.287 6.038-8.926 9.715l-2-1c9.436-11.3 9.436-11.3 14-14m-16 15 2 1-4 3zm-4 4 2 1Z" fill="#058AAD"/><path d="M58 443h2v14l-7-6c1-4 1-4 3.063-5.25L58 445z" fill="#1187A8"/><path d="M372 105c2.525 1.082 4.035 2.038 5.938 4.063 2.37 2.227 3.879 2.583 7.062 2.937l.75-2.375C387 107 387 107 389 105.688c2-.688 2-.688 4-.688-1.408 3.215-3.103 5.322-5.625 7.75l-1.914 1.86L384 116c-3.425-1.473-5.65-3.41-8.25-6.062l-2.14-2.16C372 106 372 106 372 105" fill="#1188AD"/><path d="M209 212h2v16l-6.062-.187c-5.515-.019-9.147.513-13.938 3.187.75-1.937.75-1.937 2-4 4.988-1.847 10.796-1.057 16-1z" fill="#17829E"/><path d="M473 138c2.991 3.538 4.703 7.528 6.5 11.75l.895 2.055A413 413 0 0 1 483 158l.922 2.193c2.196 5.454 2.196 5.454 1.078 8.807-6-11.476-6-11.476-6-18h-2l-1.375-3.375c-1.35-3.587-1.35-3.587-3.625-5.625.375-2.125.375-2.125 1-4" fill="#198AA5"/><path d="M302 248h3a260 260 0 0 1-.312 4.75l-.176 2.672c-.582 2.932-1.468 4.418-3.512 6.578h-2c-.293-5.673-.006-8.99 3-14" fill="#088CAF"/><path d="m272 210-.812 2.188L271 215c2.396 2.646 2.396 2.646 5 5v3l-1.61-1.242-2.14-1.633-2.11-1.617c-2.082-1.556-2.082-1.556-4.359-2.57C264 215 264 215 263.25 212.875L263 211c3.35-2.11 5.221-2.05 9-1" fill="#0291B4"/><path d="m339 292 1 2a113 113 0 0 1-4.187 7.375l-1.213 2.04c-2.21 3.639-4.4 6.716-7.6 9.585v-4h2l2-9 4-1 .313-1.812c.776-2.47 1.758-3.51 3.687-5.188" fill="#178DA9"/><path d="M60 243v14l-7-6c4-8 4-8 7-8" fill="#0A8DB0"/><path d="M60 143v14l-7-6c4-8 4-8 7-8" fill="#0B8CB0"/><path d="M481 345c-.628 3.95-1.865 7.199-3.562 10.813l-1.38 2.957L475 361c-1.165-3.495-2-6.304-2-10 1.5-1.687 1.5-1.687 3-3l-1-2c2-1 2-1 6-1" fill="#138EAF"/><path d="M254 150q4.032.427 8.063.875l2.279.238c4.75.535 9.1 1.446 13.658 2.887-2 2-2 2-4.383 2.195l-2.742-.07-2.758-.055L266 156l-1-2c-2.574-.913-2.574-.913-5.562-1.625-1.012-.26-2.024-.52-3.067-.79L254 151z" fill="#158CA8"/><path d="M428.235 75.108C430 76 430 76 431 78l-2.731.261c-3.724.842-4.96 1.84-7.574 4.555l-2.265 2.315-2.305 2.431-2.375 2.444A732 732 0 0 0 408 96l-2-1q4.139-4.323 8.325-8.6 1.42-1.459 2.828-2.93c1.349-1.41 2.715-2.801 4.081-4.193l2.476-2.555C426 75 426 75 428.235 75.108" fill="#0988A8"/><path d="m353 22 16 8c-2.521 1.26-3.281.82-5.937.063C360.496 29.338 358.71 29 356 29l-1 2c-1.498-3.371-2-5.204-2-9" fill="#128DAE"/><path d="m431 163 4 1c-2.975 4.005-5.974 7.088-10 10l-3-1c-1.187-3.562-1.187-3.562-2-7 3 1 3 1 4 3 1.915-.122 1.915-.122 4-1 1.771-2.48 1.771-2.48 3-5" fill="#068DAD"/><path d="M7 23c1.125 3.75 1.125 3.75 0 6a95 95 0 0 0-.062 5.125l.027 2.758L7 39l-6-1c2.89-10.558 2.89-10.558 6-15" fill="#0F8EB3"/><path d="m178 423 1 2c-2.871 3.948-6.143 6.94-9.828 10.086-3.558 3.136-6.86 6.523-10.172 9.914l-2-1z" fill="#078AAC"/><path d="M331 70c1.524 2.938 2.785 5.922 4 9l1 2-9-3c0-4 0-4 2-6.25z" fill="#068AB1"/><path d="m438 410 4 1-1.934 2.117-2.503 2.758-2.497 2.742c-2.075 2.194-2.075 2.194-3.066 4.383h-2l-1 2-2-6 2.25.375L432 419a125 125 0 0 0 4-6h3z" fill="#168EAA"/><path d="m191 391 2.313 2.375c2.596 2.698 2.596 2.698 5.687 4.625v3a95 95 0 0 1-5 4 178 178 0 0 0-4 4c1.258-4.508 2.904-7.491 6-11l-1.937-.687C192 396 192 396 191.25 393.375z" fill="#068BAC"/><path d="m286 263 2 3c-1.406 3.119-3.098 5.454-5.375 8l-1.871 2.094A133 133 0 0 1 275 282l-3-1 1.54-1.145c5.972-4.775 9.186-9.998 12.46-16.855" fill="#1B8AA7"/><path d="M310 8c6.62.523 12.318 1.847 18.563 4.063l2.478.853c1.99.686 3.975 1.384 5.959 2.084v1c-5.135-.642-9.994-1.683-15-3v-2l-2.117.105-2.758.082-2.742.106L312 11z" fill="#1D88A2"/><path d="M319 482v3l-2 2 6 2c-3.162 2.108-4.507 2.338-8.187 2.625l-2.731.227L310 492q1.404-1.659 2.813-3.312l1.582-1.864A88 88 0 0 1 319 482" fill="#078EB6"/><path d="M92 289h18l-5 5v-2l-9-1-1 2z" fill="#1F88A3"/><path d="m200 2 4 2-1.785.297c-2.654.842-3.754 1.936-5.653 3.953-.902.944-.902.944-1.824 1.906L193 12l-8 8-2-1z" fill="#098BAF"/><path d="M361 40c0 3.396-.522 4.066-2.5 6.688l-1.406 1.886L356 50c1.293 2.884 2.66 4.872 5 7l-1 2-8-8c1.968-3.935 3.853-6.01 7-9z" fill="#0689AB"/><path d="m491 192 3 1c1.418 2.903 1.984 5.777 2 9-1.329 2.679-2.734 3.945-5 6h-1v-6h3c-.458-3.47-.891-6.674-2-10" fill="#108AAA"/><path d="M393 373c0 3.554-1.067 5.836-2.441 9.063-.811 2.125-.811 2.125.441 4.937-3.744-1.45-3.744-1.45-4.844-3.812C386 381 386 381 387.434 378.859l2.003-2.109 1.997-2.14z" fill="#0E89AE"/><path d="m66 335 2 1a917 917 0 0 1-5.312 6.5l-1.514 1.879c-1.326 1.597-2.745 3.116-4.174 4.621h-3v-2h2l.688-1.687c1.68-2.96 3.853-4.974 6.312-7.313l1.813-1.812z" fill="#0789B0"/><path d="m495 206 2 1c1.536 6.544 2.312 13.283 2 20l-2-1c-.344-2.836-.344-2.836-.5-6.375-.165-5.142-.165-5.142-2.5-9.625l-2-1z" fill="#1C88A4"/><path d="M15 187c0 3.545-.594 4.06-2.875 6.625l-1.617 1.852C9 197 9 197 7 198c-.656 2.527-.656 2.527-1 5l-3-2c1.587-3.903 4.134-6.335 7.125-9.25l2.758-2.703z" fill="#088DAE"/><path d="m50 52 4 2-1.75.688C49.8 55.93 49.8 55.93 48 58.562c-2.066 2.519-2.845 3.1-6 3.438v2l-3-1z" fill="#088CAE"/><path d="M492 308h1c-.551 5.239-1.43 9.974-3 15l-.437-1.812c-.45-1.75-.992-3.475-1.563-5.188l-4 2 1.242-1.426 1.633-1.887 1.617-1.863c1.672-1.959 1.672-1.959 3.508-4.824" fill="#1789A4"/><path d="M210 268v21l2 1-3 1c-.902-2.707-1.119-4.238-1.098-7.012l.01-2.295.025-2.38.014-2.417q.02-2.947.049-5.896l-6 1c2.39-2.39 4.541-4 8-4" fill="#0B8CAB"/><path d="M321 70v3h4v-2l3 1c-1.812 2.25-1.812 2.25-5 4-3.872-.87-7.396-2.359-11-4v-1c3.153-.7 5.727-1 9-1" fill="#148BA9"/><path d="M402 102v2c-1.39 1.367-1.39 1.367-3.25 2.875-2.728 2.258-5.292 4.57-7.75 7.125l-2-2a701 701 0 0 1 4.813-5l2.707-2.812C399 102 399 102 402 102" fill="#058BAD"/><path d="M0 458h2v2l5 2-3 6 2 1-2 3a4822 4822 0 0 1-2-6.437L.875 461.94C0 459 0 459 0 458" fill="#158DAC"/><path d="M464 237c0 3.545-.594 4.06-2.875 6.625l-1.617 1.852C458 247 458 247 456 248c-.656 2.527-.656 2.527-1 5l-3-2c1.587-3.903 4.134-6.335 7.125-9.25l2.758-2.703z" fill="#068DAC"/><path d="M250 52c1.938.688 1.938.688 4 2 .75 2.625.75 2.625 1 5h-7c.875-5.875.875-5.875 2-7" fill="#048EB5"/><path d="m200 301 4 4-2.137-.344c-4.102.493-6.004 2.94-8.675 5.844l-1.522 1.59A366 366 0 0 0 188 316l-2-1z" fill="#0788AB"/><path d="m383 384 6 5h-3c-3.715.796-7.35 1.947-11 3z" fill="#128BA8"/><path d="m432 198 1 2 2 .438 2 .562c1.093 3.278.836 3.841 0 7a99 99 0 0 0 0 5c-2.31-2.31-2.722-3.83-3.625-6.937-.26-.876-.52-1.751-.79-2.653C432 201 432 201 432 198" fill="#148DAD"/><path d="m368 397 2 1c-4.223 6.938-4.223 6.938-8 8l-4-1z" fill="#178BA9"/><path d="m406 356 2 4-1 3h-2v2h-5z" fill="#128BAC"/><path d="m490 292 3 1v2l3 1c-.586 6.152-.586 6.152-1 8l-2 1c-1.082-3.246-.781-3.874 0-7l-1-3-3-1z" fill="#1189A7"/><path d="M313 253c6.892 5.292 6.892 5.292 7.438 8.875-.145.701-.29 1.402-.438 2.125l-.812-1.875C318.044 259.7 318.044 259.7 315 258l-1 4h-2z" fill="#0684A1"/><path d="M450 103h3c2.188 3 2.188 3 4 6l-1 2a85 85 0 0 1-7-2z" fill="#0C8DAE"/><path d="M419 68c4.677 1.477 4.677 1.477 6.313 4.125L426 74l-4 3v-4h-2v-2h-2z" fill="#0A8BAD"/><path d="m448 249 2 3-10 10-1-3 1.715-1.68 2.223-2.195 2.214-2.18c1.905-1.815 1.905-1.815 2.848-3.945" fill="#036988"/><path d="m442 91 5 5 1.813 1.688C450 99 450 99 450 101l-7-2z" fill="#148CAA"/><path d="m242 43 7 6c-1.883 3.767-2.691 4.794-6 7v-3h2l1-4h-2z" fill="#088BAC"/><path d="m334 482 6 1c-2.496 2.496-4.66 3.076-8 4.188l-3.25 1.105C326 489 326 489 324 488l5-1v-2h4z" fill="#188CA8"/><path d="m260 341 1 2a136 136 0 0 1-3 7h-5c1.555-3.817 4.036-6.192 7-9" fill="#088BAC"/><path d="M480 221c0 4.285-2.252 5.85-5 9l-1 2c-2.437 1.688-2.437 1.688-5 3l-2-1z" fill="#078DAF"/><path d="m149 50 2 2-1.496 1.46-1.941 1.915-1.934 1.898C143.92 58.917 143.92 58.917 143 61h-3c1.408-3.215 3.103-5.322 5.625-7.75l1.914-1.86z" fill="#046A8B"/><path d="m304 490 1 5h-8l-1-2c5.75-3 5.75-3 8-3" fill="#108CA9"/><path d="M40 441c3.956 1.978 6.191 3.63 9 7-.187 2.313-.187 2.313-1 4h-4c0-2 0-2 2-4z" fill="#078AAD"/><path d="M488 324c1 2 1 2 .004 5.258q-.71 1.937-1.442 3.867l-.736 1.996A769 769 0 0 1 484 340h-1q.214-2.157.438-4.312c.08-.801.162-1.602.246-2.426C484 331 484 331 485 328h2z" fill="#208AA8"/><path d="m154 55 5 5h-16l4-4v2h7z" fill="#0B8CA9"/><path d="M239 462c0 3.928-1.518 5.066-4 8l-1 2c-2.437 1.688-2.437 1.688-5 3l-2-1z" fill="#078DB0"/><path d="M321 427c-5.905 3.827-9.925 5.643-17 5 3.025-2.016 5.63-3.032 9.063-4.187l3.222-1.106C319 426 319 426 321 427" fill="#198AA7"/><path d="m452 392 3 2-6 8c-1-2-1-2-.187-5.562C450 393 450 393 452 392" fill="#148DAC"/><path d="m314 315 6 5c-1 3-1 3-3.062 4.188L315 325l.125-2.875c.225-3.227.225-3.227-2.125-5.125z" fill="#128FAE"/><path d="M268.313 213.625c3.26 1.668 5.315 3.597 7.687 6.375v3l-12-9c2-1 2-1 4.313-.375" fill="#1986AB"/><path d="M336 81h4v2l6-1 2 6c-4.308-1.566-8.062-3.683-12-6z" fill="#198BAA"/><path d="M55 448h4v7l-5-3z" fill="#038EB0"/><path d="m258 440 3 1-9 9v-2l-2-1a305 305 0 0 1 3.813-3.562l2.144-2.004z" fill="#006A8A"/><path d="M38 39q1.693 1.4 3.375 2.813l1.898 1.582C45 45 45 45 47 48l-3 1c-4.054-2.703-4.503-5.51-6-10" fill="#098EB1"/><path d="M13 15c3.875 1.75 3.875 1.75 5 4l-4-1v2l-6 3c1.372-2.954 2.989-5.44 5-8" fill="#188DA9"/><path d="M28 493h2v2l10 2v2c-5.277-.539-9.256-1.773-14-4z" fill="#1C89A5"/><path d="m316 176 3 2c-.398 2.886-.79 3.822-3.062 5.75L314 185c0-3.796.502-5.629 2-9" fill="#0A8BA7"/><path d="M60 42v3l-1.5 1.313c-1.831 1.71-1.831 1.71-1.687 4.874L57 54l-4-3c1.555-3.817 4.036-6.192 7-9" fill="#088DAC"/><path d="m209 389 1 3c-1.434 2.043-1.434 2.043-3.437 4.188l-1.997 2.167L203 400l-2-3a91 91 0 0 1 4-4h2z" fill="#006B8A"/><path d="m287 238 3 2c.512 3.04.512 3.04.688 6.625l.199 3.602L291 253l-2 1z" fill="#126178"/><path d="m193 194 6 5c-1.75 3.875-1.75 3.875-4 5l-.437-3.312c-.446-3.62-.446-3.62-1.563-6.688" fill="#088CAC"/><path d="m32 165 2 1-11 11c0-4.16 2.247-6.145 5-9 2.313-1.875 2.313-1.875 4-3" fill="#0B8DB0"/><path d="m344 46 5 3c-1.491 3.795-3.757 5.61-7 8l1-2.812c1.15-3.108 1.15-3.108 1-6.188z" fill="#088AAA"/><path d="M18 483c2.325 2.853 3.75 5.54 5 9a56.5 56.5 0 0 1-7-4c.875-3.875.875-3.875 2-5" fill="#188CA9"/><path d="M243 440h15l-2 2c-2.164-.023-2.164-.023-4.625-.375l-2.477-.336L247 441l1 4z" fill="#0F8AA9"/><path d="m246 446 3 2v3c-1.531 1.387-1.531 1.387-3.5 2.688l-1.969 1.324L242 456c.371-1.922.371-1.922 1-4 2.063-1.25 2.063-1.25 4-2z" fill="#078AA9"/><path d="M302 432v3c-4.43 2.092-4.43 2.092-7.312 1.625L293 436v-2c6.75-2 6.75-2 9-2" fill="#148CAC"/><path d="M332 421c.688 1.813.688 1.813 1 4-1.437 1.75-1.437 1.75-3 3l-3-3 1-3c2-1 2-1 4-1" fill="#0F8DA8"/><path d="M279 317h2c-1.498 3.814-3.765 5.574-7 8l-2 2c.188-2.312.188-2.312 1-5 2.5-1.687 2.5-1.687 5-3z" fill="#0789AC"/><path d="M120 317c5.258 2.142 8.647 5.928 11 11-4.136-3.381-7.813-6.666-11-11" fill="#0987AB"/><path d="M304 195v10l-6-6 1-2a70 70 0 0 1 4-1z" fill="#005E80"/><path d="m223 178 1 2-7 8-3-1 1.46-1.207 1.915-1.606 1.898-1.582c1.95-1.687 1.95-1.687 3.727-4.605" fill="#048AAD"/><path d="M457 111c3.08 2.773 4.688 5.063 6 9-1.875-.312-1.875-.312-4-1-2.152-3.228-2.2-4.284-2-8" fill="#1889A7"/><path d="M84 18c0 3 0 3-2.312 5.5L79 26l-1.812 1.813L76 29l-2-1z" fill="#098CAE"/><path d="M150 451c3.795 1.491 5.61 3.757 8 7l-1.812-1.062c-2.296-1.271-2.296-1.271-5.188.062z" fill="#078BAA"/><path d="m201.75 225.938 2.422.027L206 226v1l-2.012.367c-4.522.858-8.787 1.673-12.988 3.633.75-1.937.75-1.937 2-4 2.935-1.03 5.66-1.108 8.75-1.062" fill="#0987A7"/><path d="M309.5 67.938 311 70c-2.818 1.41-4.173.509-7.125-.437l-2.758-.872L299 68v-1c7.385-1.477 7.385-1.477 10.5.938" fill="#1C89A7"/><path d="m248 51 2 2-3 1v2a91 91 0 0 1-4 4l-3-1z" fill="#006788"/><path d="M365 467c2.125.938 2.125.938 4 2a91 91 0 0 1-4 4h-2v-5z" fill="#138DAC"/><path d="M436 291h3c-1.125 2.972-2.223 5.334-4 8h-2l1-5h2z" fill="#0C92B0"/><path d="m290 240 2 4 3 2c-1.375 1.5-1.375 1.5-3 3h-2z" fill="#0780A1"/><path d="M326 76c3.313-.312 3.313-.312 7 0 1.938 2.5 1.938 2.5 3 5q-2.222-.676-4.437-1.375l-2.497-.773C327 78 327 78 326 76" fill="#1A8CA8"/><path d="M4 28h1c.25 6.625.25 6.625-2 10H1z" fill="#1887A6"/><path d="M312 489c2.602-.293 2.602-.293 5.625-.187l3.04.082L323 489c-3.162 2.108-4.507 2.338-8.187 2.625l-2.731.227L310 492z" fill="#1A8AA8"/><path d="M45 337c2 3 2 3 1.625 5.188L46 344l-5-6z" fill="#038CAC"/><path d="m4 298 4 1v6l-5-4z" fill="#038DAC"/><path d="m345 280-2 7h-2l-1-6c3-1 3-1 5-1" fill="#178CAB"/><path d="M349 243h1v14h-1l-.437-3.75c-.278-2.314-.601-4.381-1.25-6.625L347 245z" fill="#177086"/><path d="M279 225h5c.625 2.375.625 2.375 1 5l-2 2z" fill="#148BAE"/><path d="M7 95c1.534 3.069.55 5.7 0 9l-4-3c1.152-2.468 2.048-4.048 4-6" fill="#058CAE"/><path d="m355 44-5 5-2-4c2.463-1.231 4.28-1.072 7-1" fill="#098AAC"/><path d="M386 41c4.11 1.45 7.433 3.511 11 6-1.687.75-1.687.75-4 1-2.625-1.875-2.625-1.875-5-4l-2-1z" fill="#2086A4"/><path d="M256 343c0 3.54-.582 4.495-3 7h-4v-2h3l1-3z" fill="#02627F"/><path d="m300 301 3 3-2.312.813c-2.562 1.131-3.885 2.1-5.688 4.187l-2-1z" fill="#098BA9"/><path d="M90 289c2.95 1.37 5.525 2.878 8 5v2c-2.437-.812-2.437-.812-5-2l-1-3h-2z" fill="#036A89"/><path d="M286 231c1.945 2.918 2.453 4.625 3 8l-3-1c-1.187-3.062-1.187-3.062-2-6z" fill="#0F89A9"/><path d="m179 222 1 2-6 7-1-2z" fill="#0489AD"/><path d="m370 31 8 4-4 1v-2l-4 1-1-3z" fill="#1789A5"/><path d="m405 395-3 6h-3v-3c3.333-3 3.333-3 6-3" fill="#00617A"/><path d="M399 365c1.208 3.623.543 4.641-1 8l-4-1z" fill="#188AA6"/><path d="M232 329c3.837.96 4.597 1.236 7 4l-1 3z" fill="#068DAF"/><path d="M318 315h7l-3 5z" fill="#1789AC"/><path d="m100 302 2 1a376 376 0 0 1-2.875 3l-1.617 1.688C96 309 96 309 94 309c1.393-3.367 2.979-4.986 6-7" fill="#078AB0"/><path d="m458 259 7 6c-3.576 0-5.053-1.088-8-3z" fill="#0887AB"/><path d="M428 173c1.6 3.2.032 5.723-1 9l-2-2c.33-3.297.623-4.623 3-7" fill="#118CAA"/><path d="m420 166 3 1c1.188 3.563 1.188 3.563 2 7l-3-1c-1.187-3.562-1.187-3.562-2-7" fill="#1B8DAB"/><path d="m253 43 3 1-6 5-2-3 5-1z" fill="#088AAB"/><path d="M350 480c-6.625 3-6.625 3-10 3v-2c6.625-2.125 6.625-2.125 10-1" fill="#228AAA"/><path d="m146 343 7 2-1 3c-3.161-1.37-3.993-1.99-6-5" fill="#068BA6"/><path d="M0 301c4.875 2.75 4.875 2.75 6 5H2l-2 1z" fill="#078CB2"/><path d="M159 256h5l2 5h-3c-2.187-2.5-2.187-2.5-4-5" fill="#078DB0"/><path d="m314 242 3 1-1 9h-2z" fill="#0888AB"/><path d="M448 248h4c1.813 2.375 1.813 2.375 3 5l-1 2c-4.875-3.625-4.875-3.625-6-7" fill="#005A77"/><path d="M46 245a56.5 56.5 0 0 1 7 4l-1 2h-3z" fill="#005F7A"/><path d="m44 152 2 2-7 7c0-4.39 2.128-5.77 5-9" fill="#078EAD"/><path d="m12 90 2 1c-.812 1.938-.812 1.938-2 4l-3 1c0-3 0-3 1.5-4.687z" fill="#068DAE"/><path d="m28 74 2 1c-.687 1.938-.687 1.938-2 4-2.625.75-2.625.75-5 1z" fill="#078DAD"/></svg>